Skeleton Lake 2012 DVDRip XviD AC3-PRESTiGE


Horror / Action
85 minutes

directed by Neil Mackay
Bryan Larkin, Hugh and Bob Cymbalski Lambe
  http://www.imdb.com/title/tt1754506/

English:
A group of six ruthless bank robbers in the woods met someone 
even more dangerous than themselves.It turns out to be a war 
veteran who has an arsenal of weapons and he has no intention of 
just letting the bank robbers go.


Dutch subs: YES
  http://www.moviemeter.nl/film/71740

Dutch:
Een groep van zes meedogenloze bankrovers in het bos iemand ontmoet
nog gevaarlijker is dan zichzelf. Het blijkt te zijn een oorlogsveteraan,
die heeft een arsenaal aan wapens en hij is niet van plan alleen maar 
laten de bankrovers gaan.



General
Complete name                    : Skeleton Lake 2012 DVDRip XviD AC3-PRESTiGE.avi
Format                           : AVI
Format/Info                      : Audio Video Interleave
File size                        : 1.40 GiB
Duration                         : 1h 25mn
Overall bit rate                 : 2 344 Kbps

Video
ID                               : 0
Format                           : MPEG-4 Visual
Format profile                   : AdvancedSimple@L5
Format settings, BVOP            : Yes
Format settings, QPel            : No
Format settings, GMC             : No warppoints
Format settings, Matrix          : Default (H.263)
Codec ID                         : XVID
Codec ID/Hint                    : XviD
Duration                         : 1h 25mn
Bit rate                         : 1 888 Kbps
Width                            : 720 pixels
Height                           : 336 pixels
Display aspect ratio             : 2.2:1
Frame rate                       : 23.976 fps
Resolution                       : 24 bits
Colorimetry                      : 4:2:0
Scan type                        : Progressive
Bits/(Pixel*Frame)               : 0.326
Stream size                      : 1.13 GiB (81%)
Writing library                  : XviD 1.2.1 (UTC 2008-12-04)

Audio
ID                               : 1
Format                           : AC-3
Format/Info                      : Audio Coding 3
Codec ID                         : 2000
Duration                         : 1h 25mn
Bit rate mode                    : Constant
Bit rate                         : 448 Kbps
Channel(s)                       : 6 channels
Channel positions                : Front: L C R, Surround: L R, LFE
Sampling rate                    : 48.0 KHz
Stream size                      : 274 MiB (19%)
Alignment                        : Aligned on interleaves
Interleave, duration             : 64 ms (1.53 video frames)
Interleave, preload duration     : 192 ms



